<svg width="238" height="121" viewBox="0 0 238 121" fill="none" xmlns="http://www.w3.org/2000/svg">
<path d="M16.059 54.636C12.8083 54.636 10.0523 54.0883 7.791 52.993C5.52967 51.8623 3.604 50.4137 2.014 48.647L7.314 43.294C9.82267 46.1207 12.9143 47.534 16.589 47.534C18.5677 47.534 20.034 47.1277 20.988 46.315C21.942 45.5023 22.419 44.4247 22.419 43.082C22.419 42.0573 22.1363 41.2093 21.571 40.538C21.0057 39.8313 19.8573 39.3543 18.126 39.107L14.469 38.63C10.547 38.1353 7.66733 36.9517 5.83 35.079C4.028 33.2063 3.127 30.7153 3.127 27.606C3.127 25.9453 3.445 24.426 4.081 23.048C4.717 21.67 5.618 20.4863 6.784 19.497C7.98533 18.5077 9.434 17.748 11.13 17.218C12.8613 16.6527 14.8223 16.37 17.013 16.37C19.8043 16.37 22.26 16.8117 24.38 17.695C26.5 18.5783 28.3197 19.868 29.839 21.564L24.486 26.97C23.6027 25.9453 22.525 25.115 21.253 24.479C20.0163 23.8077 18.444 23.472 16.536 23.472C14.734 23.472 13.3913 23.79 12.508 24.426C11.6247 25.062 11.183 25.9453 11.183 27.076C11.183 28.348 11.5187 29.2667 12.19 29.832C12.8967 30.3973 14.0273 30.8037 15.582 31.051L19.239 31.634C23.055 32.2347 25.8817 33.4183 27.719 35.185C29.5563 36.9163 30.475 39.3897 30.475 42.605C30.475 44.3717 30.157 45.997 29.521 47.481C28.885 48.965 27.9487 50.237 26.712 51.297C25.5107 52.357 24.009 53.1873 22.207 53.788C20.405 54.3533 18.3557 54.636 16.059 54.636ZM52.4182 36.51L48.8672 29.09H48.7082V54H41.1292V17.006H49.9272L60.0502 34.496L63.6012 41.916H63.7602V17.006H71.3392V54H62.5412L52.4182 36.51ZM91.0888 17.006V39.69C91.0888 42.3047 91.6011 44.2657 92.6258 45.573C93.6504 46.845 95.3641 47.481 97.7668 47.481C100.169 47.481 101.883 46.845 102.908 45.573C103.932 44.2657 104.445 42.3047 104.445 39.69V17.006H112.289V38.842C112.289 41.5627 112.024 43.93 111.494 45.944C110.999 47.9227 110.169 49.5657 109.003 50.873C107.837 52.145 106.335 53.099 104.498 53.735C102.66 54.3357 100.417 54.636 97.7668 54.636C95.1168 54.636 92.8731 54.3357 91.0358 53.735C89.1984 53.099 87.6968 52.145 86.5308 50.873C85.3648 49.5657 84.5168 47.9227 83.9868 45.944C83.4921 43.93 83.2448 41.5627 83.2448 38.842V17.006H91.0888Z" fill="black"/>
<path d="M159.235 88.842H145.137V104H137.081V67.006H145.137V81.74H159.235V67.006H167.291V104H159.235V88.842ZM194.355 104.636C191.846 104.636 189.585 104.247 187.571 103.47C185.557 102.657 183.843 101.474 182.43 99.919C181.016 98.329 179.921 96.368 179.144 94.036C178.366 91.6687 177.978 88.9127 177.978 85.768C177.978 82.6587 178.366 79.9027 179.144 77.5C179.921 75.062 181.016 73.0303 182.43 71.405C183.843 69.7443 185.557 68.49 187.571 67.642C189.585 66.794 191.846 66.37 194.355 66.37C197.782 66.37 200.609 67.0767 202.835 68.49C205.061 69.868 206.845 72.0587 208.188 75.062L201.245 78.666C200.75 77.1113 199.973 75.8747 198.913 74.956C197.888 74.002 196.369 73.525 194.355 73.525C191.987 73.525 190.079 74.3023 188.631 75.857C187.217 77.3763 186.511 79.6023 186.511 82.535V88.471C186.511 91.4037 187.217 93.6473 188.631 95.202C190.079 96.7213 191.987 97.481 194.355 97.481C196.333 97.481 197.906 96.951 199.072 95.891C200.273 94.7957 201.156 93.4883 201.722 91.969L208.294 95.785C206.916 98.6117 205.096 100.802 202.835 102.357C200.609 103.876 197.782 104.636 194.355 104.636ZM216.475 104V97.587H221.245V73.419H216.475V67.006H234.071V73.419H229.301V97.587H234.071V104H216.475Z" fill="black"/>
<rect x="81" y="65.375" width="7.68317" height="7.68317" fill="#0500FF"/>
<rect x="118.647" y="103.791" width="7.68317" height="7.68317" transform="rotate(-180 118.647 103.791)" fill="#0500FF"/>
<rect x="110.964" y="65.375" width="7.68317" height="7.68317" fill="#0500FF"/>
<rect x="88.6831" y="103.791" width="7.68317" height="7.68317" transform="rotate(-180 88.6831 103.791)" fill="#0500FF"/>
<rect x="88.6831" y="73.0582" width="7.68317" height="7.68317" fill="#0500FF"/>
<rect x="110.964" y="96.1077" width="7.68317" height="7.68317" transform="rotate(-180 110.964 96.1077)" fill="#0500FF"/>
<rect x="103.281" y="73.0582" width="7.68317" height="7.68317" fill="#0500FF"/>
<rect x="96.3663" y="80.7413" width="7.68317" height="7.68317" fill="#0500FF"/>
<rect x="96.3663" y="96.1077" width="7.68317" height="7.68317" transform="rotate(-180 96.3663 96.1077)" fill="#0500FF"/>
</svg>
