<svg width="331" height="98" viewBox="0 0 331 98" fill="none" xmlns="http://www.w3.org/2000/svg">
<path d="M18.18 62.72C14.5 62.72 11.38 62.1 8.82 60.86C6.26 59.58 4.08 57.94 2.28 55.94L8.28 49.88C11.12 53.08 14.62 54.68 18.78 54.68C21.02 54.68 22.68 54.22 23.76 53.3C24.84 52.38 25.38 51.16 25.38 49.64C25.38 48.48 25.06 47.52 24.42 46.76C23.78 45.96 22.48 45.42 20.52 45.14L16.38 44.6C11.94 44.04 8.68 42.7 6.6 40.58C4.56 38.46 3.54 35.64 3.54 32.12C3.54 30.24 3.9 28.52 4.62 26.96C5.34 25.4 6.36 24.06 7.68 22.94C9.04 21.82 10.68 20.96 12.6 20.36C14.56 19.72 16.78 19.4 19.26 19.4C22.42 19.4 25.2 19.9 27.6 20.9C30 21.9 32.06 23.36 33.78 25.28L27.72 31.4C26.72 30.24 25.5 29.3 24.06 28.58C22.66 27.82 20.88 27.44 18.72 27.44C16.68 27.44 15.16 27.8 14.16 28.52C13.16 29.24 12.66 30.24 12.66 31.52C12.66 32.96 13.04 34 13.8 34.64C14.6 35.28 15.88 35.74 17.64 36.02L21.78 36.68C26.1 37.36 29.3 38.7 31.38 40.7C33.46 42.66 34.5 45.46 34.5 49.1C34.5 51.1 34.14 52.94 33.42 54.62C32.7 56.3 31.64 57.74 30.24 58.94C28.88 60.14 27.18 61.08 25.14 61.76C23.1 62.4 20.78 62.72 18.18 62.72ZM59.3414 42.2L55.3214 33.8H55.1414V62H46.5614V20.12H56.5214L67.9814 39.92L72.0014 48.32H72.1814V20.12H80.7614V62H70.8014L59.3414 42.2ZM103.119 20.12V45.8C103.119 48.76 103.699 50.98 104.859 52.46C106.019 53.9 107.959 54.62 110.679 54.62C113.399 54.62 115.339 53.9 116.499 52.46C117.659 50.98 118.239 48.76 118.239 45.8V20.12H127.119V44.84C127.119 47.92 126.819 50.6 126.219 52.88C125.659 55.12 124.719 56.98 123.399 58.46C122.079 59.9 120.379 60.98 118.299 61.7C116.219 62.38 113.679 62.72 110.679 62.72C107.679 62.72 105.139 62.38 103.059 61.7C100.979 60.98 99.2794 59.9 97.9594 58.46C96.6394 56.98 95.6794 55.12 95.0794 52.88C94.5194 50.6 94.2394 47.92 94.2394 44.84V20.12H103.119Z" fill="black"/>
<path d="M239.7 44.84H223.74V62H214.62V20.12H223.74V36.8H239.7V20.12H248.82V62H239.7V44.84ZM279.458 62.72C276.618 62.72 274.058 62.28 271.778 61.4C269.498 60.48 267.558 59.14 265.958 57.38C264.358 55.58 263.118 53.36 262.238 50.72C261.358 48.04 260.918 44.92 260.918 41.36C260.918 37.84 261.358 34.72 262.238 32C263.118 29.24 264.358 26.94 265.958 25.1C267.558 23.22 269.498 21.8 271.778 20.84C274.058 19.88 276.618 19.4 279.458 19.4C283.338 19.4 286.538 20.2 289.058 21.8C291.578 23.36 293.598 25.84 295.118 29.24L287.258 33.32C286.698 31.56 285.818 30.16 284.618 29.12C283.458 28.04 281.738 27.5 279.458 27.5C276.778 27.5 274.618 28.38 272.978 30.14C271.378 31.86 270.578 34.38 270.578 37.7V44.42C270.578 47.74 271.378 50.28 272.978 52.04C274.618 53.76 276.778 54.62 279.458 54.62C281.698 54.62 283.478 54.02 284.798 52.82C286.158 51.58 287.158 50.1 287.798 48.38L295.238 52.7C293.678 55.9 291.618 58.38 289.058 60.14C286.538 61.86 283.338 62.72 279.458 62.72ZM304.5 62V54.74H309.9V27.38H304.5V20.12H324.42V27.38H319.02V54.74H324.42V62H304.5Z" fill="black"/>
<rect x="148.428" y="19" width="9.20995" height="8.99999" fill="#0500FF"/>
<rect x="193.555" y="64" width="9.20995" height="8.99999" transform="rotate(-180 193.555 64)" fill="#0500FF"/>
<rect x="184.346" y="19" width="9.20995" height="8.99999" fill="#0500FF"/>
<rect x="157.637" y="64" width="9.20995" height="8.99999" transform="rotate(-180 157.637 64)" fill="#0500FF"/>
<rect x="157.637" y="28" width="9.20995" height="8.99999" fill="#0500FF"/>
<rect x="184.346" y="55" width="9.20995" height="8.99999" transform="rotate(-180 184.346 55)" fill="#0500FF"/>
<rect x="175.136" y="28" width="9.20995" height="8.99999" fill="#0500FF"/>
<rect x="166.847" y="37.0002" width="9.20995" height="8.99999" fill="#0500FF"/>
<rect x="166.847" y="55" width="9.20995" height="8.99999" transform="rotate(-180 166.847 55)" fill="#0500FF"/>
<path d="M5.78 93.24C4.64667 93.24 3.68 93.0267 2.88 92.6C2.08 92.16 1.4 91.56 0.84 90.8L2.08 89.76C2.57333 90.4133 3.12 90.9133 3.72 91.26C4.32 91.5933 5.02667 91.76 5.84 91.76C6.84 91.76 7.6 91.52 8.12 91.04C8.65333 90.56 8.92 89.92 8.92 89.12C8.92 88.4533 8.72 87.94 8.32 87.58C7.92 87.22 7.26 86.9333 6.34 86.72L5.2 86.46C3.92 86.1667 2.94 85.7267 2.26 85.14C1.59333 84.54 1.26 83.7 1.26 82.62C1.26 82.0067 1.37333 81.46 1.6 80.98C1.82667 80.5 2.14 80.1 2.54 79.78C2.95333 79.46 3.44 79.22 4 79.06C4.57333 78.8867 5.2 78.8 5.88 78.8C6.93333 78.8 7.83333 78.9933 8.58 79.38C9.34 79.7667 9.98 80.3333 10.5 81.08L9.24 82C8.85333 81.4667 8.38667 81.0467 7.84 80.74C7.29333 80.4333 6.61333 80.28 5.8 80.28C4.90667 80.28 4.2 80.4733 3.68 80.86C3.17333 81.2333 2.92 81.8 2.92 82.56C2.92 83.2267 3.13333 83.7333 3.56 84.08C4 84.4133 4.66 84.68 5.54 84.88L6.68 85.14C8.05333 85.4467 9.04667 85.9133 9.66 86.54C10.2733 87.1667 10.58 88 10.58 89.04C10.58 89.68 10.4667 90.26 10.24 90.78C10.0267 91.3 9.71333 91.74 9.3 92.1C8.88667 92.46 8.38 92.74 7.78 92.94C7.19333 93.14 6.52667 93.24 5.78 93.24ZM17.2011 93.24C16.4944 93.24 15.8544 93.1133 15.2811 92.86C14.7211 92.6067 14.2344 92.2467 13.8211 91.78C13.4211 91.3 13.1078 90.7333 12.8811 90.08C12.6678 89.4133 12.5611 88.6667 12.5611 87.84C12.5611 87.0267 12.6678 86.2867 12.8811 85.62C13.1078 84.9533 13.4211 84.3867 13.8211 83.92C14.2344 83.44 14.7211 83.0733 15.2811 82.82C15.8544 82.5667 16.4944 82.44 17.2011 82.44C17.8944 82.44 18.5144 82.5667 19.0611 82.82C19.6078 83.0733 20.0744 83.4267 20.4611 83.88C20.8478 84.32 21.1411 84.8467 21.3411 85.46C21.5544 86.0733 21.6611 86.7467 21.6611 87.48V88.24H14.2411V88.72C14.2411 89.16 14.3078 89.5733 14.4411 89.96C14.5878 90.3333 14.7878 90.66 15.0411 90.94C15.3078 91.22 15.6278 91.44 16.0011 91.6C16.3878 91.76 16.8211 91.84 17.3011 91.84C17.9544 91.84 18.5211 91.6867 19.0011 91.38C19.4944 91.0733 19.8744 90.6333 20.1411 90.06L21.2811 90.88C20.9478 91.5867 20.4278 92.16 19.7211 92.6C19.0144 93.0267 18.1744 93.24 17.2011 93.24ZM17.2011 83.78C16.7611 83.78 16.3611 83.86 16.0011 84.02C15.6411 84.1667 15.3278 84.38 15.0611 84.66C14.8078 84.94 14.6078 85.2733 14.4611 85.66C14.3144 86.0333 14.2411 86.4467 14.2411 86.9V87.04H19.9411V86.82C19.9411 85.9 19.6878 85.1667 19.1811 84.62C18.6878 84.06 18.0278 83.78 17.2011 83.78ZM28.1977 93.24C27.5043 93.24 26.871 93.1133 26.2977 92.86C25.7243 92.6067 25.231 92.2467 24.8177 91.78C24.4177 91.3 24.1043 90.7333 23.8777 90.08C23.651 89.4133 23.5377 88.6667 23.5377 87.84C23.5377 87.0267 23.651 86.2867 23.8777 85.62C24.1043 84.9533 24.4177 84.3867 24.8177 83.92C25.231 83.44 25.7243 83.0733 26.2977 82.82C26.871 82.5667 27.5043 82.44 28.1977 82.44C28.891 82.44 29.5177 82.5667 30.0777 82.82C30.651 83.0733 31.1443 83.44 31.5577 83.92C31.971 84.3867 32.291 84.9533 32.5177 85.62C32.7443 86.2867 32.8577 87.0267 32.8577 87.84C32.8577 88.6667 32.7443 89.4133 32.5177 90.08C32.291 90.7333 31.971 91.3 31.5577 91.78C31.1443 92.2467 30.651 92.6067 30.0777 92.86C29.5177 93.1133 28.891 93.24 28.1977 93.24ZM28.1977 91.82C29.0643 91.82 29.771 91.5533 30.3177 91.02C30.8643 90.4867 31.1377 89.6733 31.1377 88.58V87.1C31.1377 86.0067 30.8643 85.1933 30.3177 84.66C29.771 84.1267 29.0643 83.86 28.1977 83.86C27.331 83.86 26.6243 84.1267 26.0777 84.66C25.531 85.1933 25.2577 86.0067 25.2577 87.1V88.58C25.2577 89.6733 25.531 90.4867 26.0777 91.02C26.6243 91.5533 27.331 91.82 28.1977 91.82ZM41.8491 91.32H41.7691C41.6624 91.56 41.5291 91.8 41.3691 92.04C41.2224 92.2667 41.0357 92.4733 40.8091 92.66C40.5824 92.8333 40.3091 92.9733 39.9891 93.08C39.6691 93.1867 39.2957 93.24 38.8691 93.24C37.8024 93.24 36.9557 92.9 36.3291 92.22C35.7024 91.5267 35.3891 90.5533 35.3891 89.3V82.68H36.9891V89.02C36.9891 90.8733 37.7757 91.8 39.3491 91.8C39.6691 91.8 39.9757 91.76 40.2691 91.68C40.5757 91.6 40.8424 91.48 41.0691 91.32C41.3091 91.16 41.4957 90.96 41.6291 90.72C41.7757 90.4667 41.8491 90.1667 41.8491 89.82V82.68H43.4491V93H41.8491V91.32ZM48.5563 93C47.9963 93 47.5696 92.8467 47.2763 92.54C46.9963 92.22 46.8563 91.82 46.8563 91.34V78.2H48.4563V91.6H49.9763V93H48.5563ZM60.572 84.48L58.892 81.38H58.832V93H57.192V79.04H59.132L64.232 87.56L65.912 90.66H65.972V79.04H67.612V93H65.672L60.572 84.48ZM78.6727 93C78.0727 93 77.6393 92.84 77.3727 92.52C77.1193 92.2 76.9593 91.8 76.8927 91.32H76.7927C76.566 91.96 76.1927 92.44 75.6727 92.76C75.1527 93.08 74.5327 93.24 73.8127 93.24C72.7193 93.24 71.866 92.96 71.2527 92.4C70.6527 91.84 70.3527 91.08 70.3527 90.12C70.3527 89.1467 70.706 88.4 71.4127 87.88C72.1327 87.36 73.246 87.1 74.7527 87.1H76.7927V86.08C76.7927 85.3467 76.5927 84.7867 76.1927 84.4C75.7927 84.0133 75.1793 83.82 74.3527 83.82C73.726 83.82 73.1993 83.96 72.7727 84.24C72.3593 84.52 72.0127 84.8933 71.7327 85.36L70.7727 84.46C71.0527 83.9 71.4993 83.4267 72.1127 83.04C72.726 82.64 73.4993 82.44 74.4327 82.44C75.686 82.44 76.6593 82.7467 77.3527 83.36C78.046 83.9733 78.3927 84.8267 78.3927 85.92V91.6H79.5727V93H78.6727ZM74.0727 91.88C74.4727 91.88 74.8393 91.8333 75.1727 91.74C75.506 91.6467 75.7927 91.5133 76.0327 91.34C76.2727 91.1667 76.4593 90.9667 76.5927 90.74C76.726 90.5133 76.7927 90.2667 76.7927 90V88.3H74.6727C73.7527 88.3 73.0793 88.4333 72.6527 88.7C72.2393 88.9667 72.0327 89.3533 72.0327 89.86V90.28C72.0327 90.7867 72.2127 91.18 72.5727 91.46C72.946 91.74 73.446 91.88 74.0727 91.88ZM84.1363 93C83.5763 93 83.1496 92.8467 82.8563 92.54C82.5763 92.22 82.4363 91.8067 82.4363 91.3V84.08H80.7363V82.68H81.6963C82.0429 82.68 82.2763 82.6133 82.3963 82.48C82.5296 82.3333 82.5963 82.0867 82.5963 81.74V79.82H84.0363V82.68H86.2963V84.08H84.0363V91.6H86.1363V93H84.1363ZM89.668 80.26C89.3213 80.26 89.068 80.18 88.908 80.02C88.7613 79.8467 88.688 79.6267 88.688 79.36V79.1C88.688 78.8333 88.7613 78.62 88.908 78.46C89.068 78.2867 89.3213 78.2 89.668 78.2C90.0146 78.2 90.2613 78.2867 90.408 78.46C90.568 78.62 90.648 78.8333 90.648 79.1V79.36C90.648 79.6267 90.568 79.8467 90.408 80.02C90.2613 80.18 90.0146 80.26 89.668 80.26ZM88.868 82.68H90.468V93H88.868V82.68ZM97.768 93.24C97.0746 93.24 96.4413 93.1133 95.868 92.86C95.2946 92.6067 94.8013 92.2467 94.388 91.78C93.988 91.3 93.6746 90.7333 93.448 90.08C93.2213 89.4133 93.108 88.6667 93.108 87.84C93.108 87.0267 93.2213 86.2867 93.448 85.62C93.6746 84.9533 93.988 84.3867 94.388 83.92C94.8013 83.44 95.2946 83.0733 95.868 82.82C96.4413 82.5667 97.0746 82.44 97.768 82.44C98.4613 82.44 99.088 82.5667 99.648 82.82C100.221 83.0733 100.715 83.44 101.128 83.92C101.541 84.3867 101.861 84.9533 102.088 85.62C102.315 86.2867 102.428 87.0267 102.428 87.84C102.428 88.6667 102.315 89.4133 102.088 90.08C101.861 90.7333 101.541 91.3 101.128 91.78C100.715 92.2467 100.221 92.6067 99.648 92.86C99.088 93.1133 98.4613 93.24 97.768 93.24ZM97.768 91.82C98.6346 91.82 99.3413 91.5533 99.888 91.02C100.435 90.4867 100.708 89.6733 100.708 88.58V87.1C100.708 86.0067 100.435 85.1933 99.888 84.66C99.3413 84.1267 98.6346 83.86 97.768 83.86C96.9013 83.86 96.1946 84.1267 95.648 84.66C95.1013 85.1933 94.828 86.0067 94.828 87.1V88.58C94.828 89.6733 95.1013 90.4867 95.648 91.02C96.1946 91.5533 96.9013 91.82 97.768 91.82ZM105.059 93V82.68H106.659V84.36H106.739C106.993 83.7733 107.346 83.3067 107.799 82.96C108.266 82.6133 108.886 82.44 109.659 82.44C110.726 82.44 111.566 82.7867 112.179 83.48C112.806 84.16 113.119 85.1267 113.119 86.38V93H111.519V86.66C111.519 84.8067 110.739 83.88 109.179 83.88C108.859 83.88 108.546 83.92 108.239 84C107.946 84.08 107.679 84.2 107.439 84.36C107.199 84.52 107.006 84.7267 106.859 84.98C106.726 85.22 106.659 85.5067 106.659 85.84V93H105.059ZM123.927 93C123.327 93 122.893 92.84 122.627 92.52C122.373 92.2 122.213 91.8 122.147 91.32H122.047C121.82 91.96 121.447 92.44 120.927 92.76C120.407 93.08 119.787 93.24 119.067 93.24C117.973 93.24 117.12 92.96 116.507 92.4C115.907 91.84 115.607 91.08 115.607 90.12C115.607 89.1467 115.96 88.4 116.667 87.88C117.387 87.36 118.5 87.1 120.007 87.1H122.047V86.08C122.047 85.3467 121.847 84.7867 121.447 84.4C121.047 84.0133 120.433 83.82 119.607 83.82C118.98 83.82 118.453 83.96 118.027 84.24C117.613 84.52 117.267 84.8933 116.987 85.36L116.027 84.46C116.307 83.9 116.753 83.4267 117.367 83.04C117.98 82.64 118.753 82.44 119.687 82.44C120.94 82.44 121.913 82.7467 122.607 83.36C123.3 83.9733 123.647 84.8267 123.647 85.92V91.6H124.827V93H123.927ZM119.327 91.88C119.727 91.88 120.093 91.8333 120.427 91.74C120.76 91.6467 121.047 91.5133 121.287 91.34C121.527 91.1667 121.713 90.9667 121.847 90.74C121.98 90.5133 122.047 90.2667 122.047 90V88.3H119.927C119.007 88.3 118.333 88.4333 117.907 88.7C117.493 88.9667 117.287 89.3533 117.287 89.86V90.28C117.287 90.7867 117.467 91.18 117.827 91.46C118.2 91.74 118.7 91.88 119.327 91.88ZM128.81 93C128.25 93 127.823 92.8467 127.53 92.54C127.25 92.22 127.11 91.82 127.11 91.34V78.2H128.71V91.6H130.23V93H128.81ZM139.026 79.04V87.68C139.026 89.0133 139.273 90.0267 139.766 90.72C140.259 91.4 141.126 91.74 142.366 91.74C143.606 91.74 144.473 91.4 144.966 90.72C145.459 90.0267 145.706 89.0133 145.706 87.68V79.04H147.386V87.28C147.386 88.2933 147.293 89.1733 147.106 89.92C146.933 90.6667 146.646 91.2867 146.246 91.78C145.846 92.2733 145.319 92.64 144.666 92.88C144.026 93.12 143.239 93.24 142.306 93.24C141.373 93.24 140.586 93.12 139.946 92.88C139.319 92.64 138.813 92.2733 138.426 91.78C138.039 91.2867 137.759 90.6667 137.586 89.92C137.426 89.1733 137.346 88.2933 137.346 87.28V79.04H139.026ZM150.841 93V82.68H152.441V84.36H152.521C152.774 83.7733 153.127 83.3067 153.581 82.96C154.047 82.6133 154.667 82.44 155.441 82.44C156.507 82.44 157.347 82.7867 157.961 83.48C158.587 84.16 158.901 85.1267 158.901 86.38V93H157.301V86.66C157.301 84.8067 156.521 83.88 154.961 83.88C154.641 83.88 154.327 83.92 154.021 84C153.727 84.08 153.461 84.2 153.221 84.36C152.981 84.52 152.787 84.7267 152.641 84.98C152.507 85.22 152.441 85.5067 152.441 85.84V93H150.841ZM163.008 80.26C162.661 80.26 162.408 80.18 162.248 80.02C162.101 79.8467 162.028 79.6267 162.028 79.36V79.1C162.028 78.8333 162.101 78.62 162.248 78.46C162.408 78.2867 162.661 78.2 163.008 78.2C163.354 78.2 163.601 78.2867 163.748 78.46C163.908 78.62 163.988 78.8333 163.988 79.1V79.36C163.988 79.6267 163.908 79.8467 163.748 80.02C163.601 80.18 163.354 80.26 163.008 80.26ZM162.208 82.68H163.808V93H162.208V82.68ZM169.488 93L165.868 82.68H167.468L169.268 87.8L170.388 91.32H170.488L171.608 87.8L173.448 82.68H174.988L171.348 93H169.488ZM180.775 93.24C180.069 93.24 179.429 93.1133 178.855 92.86C178.295 92.6067 177.809 92.2467 177.395 91.78C176.995 91.3 176.682 90.7333 176.455 90.08C176.242 89.4133 176.135 88.6667 176.135 87.84C176.135 87.0267 176.242 86.2867 176.455 85.62C176.682 84.9533 176.995 84.3867 177.395 83.92C177.809 83.44 178.295 83.0733 178.855 82.82C179.429 82.5667 180.069 82.44 180.775 82.44C181.469 82.44 182.089 82.5667 182.635 82.82C183.182 83.0733 183.649 83.4267 184.035 83.88C184.422 84.32 184.715 84.8467 184.915 85.46C185.129 86.0733 185.235 86.7467 185.235 87.48V88.24H177.815V88.72C177.815 89.16 177.882 89.5733 178.015 89.96C178.162 90.3333 178.362 90.66 178.615 90.94C178.882 91.22 179.202 91.44 179.575 91.6C179.962 91.76 180.395 91.84 180.875 91.84C181.529 91.84 182.095 91.6867 182.575 91.38C183.069 91.0733 183.449 90.6333 183.715 90.06L184.855 90.88C184.522 91.5867 184.002 92.16 183.295 92.6C182.589 93.0267 181.749 93.24 180.775 93.24ZM180.775 83.78C180.335 83.78 179.935 83.86 179.575 84.02C179.215 84.1667 178.902 84.38 178.635 84.66C178.382 84.94 178.182 85.2733 178.035 85.66C177.889 86.0333 177.815 86.4467 177.815 86.9V87.04H183.515V86.82C183.515 85.9 183.262 85.1667 182.755 84.62C182.262 84.06 181.602 83.78 180.775 83.78ZM187.872 93V82.68H189.472V84.58H189.572C189.759 84.0867 190.092 83.6467 190.572 83.26C191.052 82.8733 191.712 82.68 192.552 82.68H193.172V84.28H192.232C191.365 84.28 190.685 84.4467 190.192 84.78C189.712 85.1 189.472 85.5067 189.472 86V93H187.872ZM198.316 93.24C197.356 93.24 196.549 93.06 195.896 92.7C195.256 92.3267 194.702 91.8333 194.236 91.22L195.376 90.3C195.776 90.8067 196.222 91.2 196.716 91.48C197.209 91.7467 197.782 91.88 198.436 91.88C199.116 91.88 199.642 91.7333 200.016 91.44C200.402 91.1467 200.596 90.7333 200.596 90.2C200.596 89.8 200.462 89.46 200.196 89.18C199.942 88.8867 199.476 88.6867 198.796 88.58L197.976 88.46C197.496 88.3933 197.056 88.2933 196.656 88.16C196.256 88.0133 195.902 87.8267 195.596 87.6C195.302 87.36 195.069 87.0667 194.896 86.72C194.736 86.3733 194.656 85.96 194.656 85.48C194.656 84.9733 194.749 84.5333 194.936 84.16C195.122 83.7733 195.376 83.4533 195.696 83.2C196.029 82.9467 196.422 82.76 196.876 82.64C197.329 82.5067 197.816 82.44 198.336 82.44C199.176 82.44 199.876 82.5867 200.436 82.88C201.009 83.1733 201.509 83.58 201.936 84.1L200.876 85.06C200.649 84.74 200.316 84.4533 199.876 84.2C199.436 83.9333 198.882 83.8 198.216 83.8C197.549 83.8 197.042 83.9467 196.696 84.24C196.362 84.52 196.196 84.9067 196.196 85.4C196.196 85.9067 196.362 86.2733 196.696 86.5C197.042 86.7267 197.536 86.8933 198.176 87L198.976 87.12C200.122 87.2933 200.936 87.6267 201.416 88.12C201.896 88.6 202.136 89.2333 202.136 90.02C202.136 91.02 201.796 91.8067 201.116 92.38C200.436 92.9533 199.502 93.24 198.316 93.24ZM205.762 80.26C205.415 80.26 205.162 80.18 205.002 80.02C204.855 79.8467 204.782 79.6267 204.782 79.36V79.1C204.782 78.8333 204.855 78.62 205.002 78.46C205.162 78.2867 205.415 78.2 205.762 78.2C206.108 78.2 206.355 78.2867 206.502 78.46C206.662 78.62 206.742 78.8333 206.742 79.1V79.36C206.742 79.6267 206.662 79.8467 206.502 80.02C206.355 80.18 206.108 80.26 205.762 80.26ZM204.962 82.68H206.562V93H204.962V82.68ZM212.242 93C211.682 93 211.255 92.8467 210.962 92.54C210.682 92.22 210.542 91.8067 210.542 91.3V84.08H208.842V82.68H209.802C210.148 82.68 210.382 82.6133 210.502 82.48C210.635 82.3333 210.702 82.0867 210.702 81.74V79.82H212.142V82.68H214.402V84.08H212.142V91.6H214.242V93H212.242ZM223.333 82.68H224.913L220.293 95.4C220.173 95.7067 220.053 95.96 219.933 96.16C219.813 96.3733 219.667 96.54 219.493 96.66C219.32 96.78 219.1 96.8667 218.833 96.92C218.58 96.9733 218.267 97 217.893 97H217.073V95.6H218.693L219.473 93.4L215.613 82.68H217.213L219.693 89.7L220.173 91.38H220.273L220.833 89.7L223.333 82.68ZM240.58 86.68H233.52V93H231.84V79.04H233.52V85.2H240.58V79.04H242.26V93H240.58V86.68ZM250.901 93.24C249.128 93.24 247.748 92.64 246.761 91.44C245.774 90.2267 245.281 88.4467 245.281 86.1C245.281 83.7533 245.774 81.9533 246.761 80.7C247.748 79.4333 249.128 78.8 250.901 78.8C252.074 78.8 253.054 79.0667 253.841 79.6C254.641 80.1333 255.261 80.8867 255.701 81.86L254.341 82.68C254.061 81.96 253.634 81.3867 253.061 80.96C252.488 80.52 251.768 80.3 250.901 80.3C250.301 80.3 249.761 80.4133 249.281 80.64C248.814 80.8667 248.414 81.1933 248.081 81.62C247.761 82.0333 247.514 82.5333 247.341 83.12C247.168 83.6933 247.081 84.34 247.081 85.06V87.14C247.081 88.58 247.414 89.7067 248.081 90.52C248.748 91.3333 249.688 91.74 250.901 91.74C251.794 91.74 252.541 91.5133 253.141 91.06C253.741 90.5933 254.181 89.98 254.461 89.22L255.801 90.06C255.361 91.0467 254.728 91.8267 253.901 92.4C253.074 92.96 252.074 93.24 250.901 93.24ZM257.743 93V91.6H259.703V80.44H257.743V79.04H263.343V80.44H261.383V91.6H263.343V93H257.743ZM280.177 90.96H280.117C279.944 91.6133 279.517 92.16 278.837 92.6C278.171 93.0267 277.304 93.24 276.237 93.24C275.384 93.24 274.597 93.0867 273.877 92.78C273.171 92.46 272.564 92 272.057 91.4C271.551 90.7867 271.151 90.0333 270.857 89.14C270.577 88.2333 270.437 87.1933 270.437 86.02C270.437 84.86 270.577 83.8333 270.857 82.94C271.137 82.0333 271.537 81.28 272.057 80.68C272.577 80.0667 273.204 79.6 273.937 79.28C274.671 78.96 275.484 78.8 276.377 78.8C277.631 78.8 278.677 79.08 279.517 79.64C280.357 80.2 281.004 80.94 281.457 81.86L280.077 82.7C279.757 81.9533 279.277 81.3667 278.637 80.94C278.011 80.5133 277.257 80.3 276.377 80.3C275.764 80.3 275.204 80.4133 274.697 80.64C274.191 80.8533 273.751 81.16 273.377 81.56C273.017 81.96 272.737 82.44 272.537 83C272.337 83.56 272.237 84.1867 272.237 84.88V87.14C272.237 87.8333 272.337 88.4667 272.537 89.04C272.737 89.6 273.017 90.08 273.377 90.48C273.751 90.88 274.204 91.1933 274.737 91.42C275.271 91.6333 275.871 91.74 276.537 91.74C277.017 91.74 277.471 91.68 277.897 91.56C278.337 91.4267 278.717 91.2333 279.037 90.98C279.371 90.7267 279.631 90.4133 279.817 90.04C280.004 89.6533 280.097 89.2 280.097 88.68V87.3H277.017V85.82H281.737V93H280.177V90.96ZM284.884 93V82.68H286.484V84.58H286.584C286.77 84.0867 287.104 83.6467 287.584 83.26C288.064 82.8733 288.724 82.68 289.564 82.68H290.184V84.28H289.244C288.377 84.28 287.697 84.4467 287.204 84.78C286.724 85.1 286.484 85.5067 286.484 86V93H284.884ZM296.03 93.24C295.336 93.24 294.703 93.1133 294.13 92.86C293.556 92.6067 293.063 92.2467 292.65 91.78C292.25 91.3 291.936 90.7333 291.71 90.08C291.483 89.4133 291.37 88.6667 291.37 87.84C291.37 87.0267 291.483 86.2867 291.71 85.62C291.936 84.9533 292.25 84.3867 292.65 83.92C293.063 83.44 293.556 83.0733 294.13 82.82C294.703 82.5667 295.336 82.44 296.03 82.44C296.723 82.44 297.35 82.5667 297.91 82.82C298.483 83.0733 298.976 83.44 299.39 83.92C299.803 84.3867 300.123 84.9533 300.35 85.62C300.576 86.2867 300.69 87.0267 300.69 87.84C300.69 88.6667 300.576 89.4133 300.35 90.08C300.123 90.7333 299.803 91.3 299.39 91.78C298.976 92.2467 298.483 92.6067 297.91 92.86C297.35 93.1133 296.723 93.24 296.03 93.24ZM296.03 91.82C296.896 91.82 297.603 91.5533 298.15 91.02C298.696 90.4867 298.97 89.6733 298.97 88.58V87.1C298.97 86.0067 298.696 85.1933 298.15 84.66C297.603 84.1267 296.896 83.86 296.03 83.86C295.163 83.86 294.456 84.1267 293.91 84.66C293.363 85.1933 293.09 86.0067 293.09 87.1V88.58C293.09 89.6733 293.363 90.4867 293.91 91.02C294.456 91.5533 295.163 91.82 296.03 91.82ZM309.681 91.32H309.601C309.494 91.56 309.361 91.8 309.201 92.04C309.054 92.2667 308.868 92.4733 308.641 92.66C308.414 92.8333 308.141 92.9733 307.821 93.08C307.501 93.1867 307.128 93.24 306.701 93.24C305.634 93.24 304.788 92.9 304.161 92.22C303.534 91.5267 303.221 90.5533 303.221 89.3V82.68H304.821V89.02C304.821 90.8733 305.608 91.8 307.181 91.8C307.501 91.8 307.808 91.76 308.101 91.68C308.408 91.6 308.674 91.48 308.901 91.32C309.141 91.16 309.328 90.96 309.461 90.72C309.608 90.4667 309.681 90.1667 309.681 89.82V82.68H311.281V93H309.681V91.32ZM314.688 82.68H316.288V84.36H316.368C316.635 83.7067 317.022 83.2267 317.528 82.92C318.048 82.6 318.668 82.44 319.388 82.44C320.028 82.44 320.608 82.5667 321.128 82.82C321.648 83.0733 322.088 83.4333 322.448 83.9C322.822 84.3667 323.102 84.9333 323.288 85.6C323.488 86.2667 323.588 87.0133 323.588 87.84C323.588 88.6667 323.488 89.4133 323.288 90.08C323.102 90.7467 322.822 91.3133 322.448 91.78C322.088 92.2467 321.648 92.6067 321.128 92.86C320.608 93.1133 320.028 93.24 319.388 93.24C317.988 93.24 316.982 92.6 316.368 91.32H316.288V97H314.688V82.68ZM318.948 91.8C319.855 91.8 320.568 91.52 321.088 90.96C321.608 90.3867 321.868 89.64 321.868 88.72V86.96C321.868 86.04 321.608 85.3 321.088 84.74C320.568 84.1667 319.855 83.88 318.948 83.88C318.588 83.88 318.242 83.9333 317.908 84.04C317.588 84.1333 317.308 84.2667 317.068 84.44C316.828 84.6133 316.635 84.8267 316.488 85.08C316.355 85.32 316.288 85.58 316.288 85.86V89.7C316.288 90.0333 316.355 90.3333 316.488 90.6C316.635 90.8533 316.828 91.0733 317.068 91.26C317.308 91.4333 317.588 91.5667 317.908 91.66C318.242 91.7533 318.588 91.8 318.948 91.8Z" fill="black"/>
</svg>
