<svg width="1010" height="140" viewBox="0 0 1010 140" fill="none" xmlns="http://www.w3.org/2000/svg">
<rect x="112" y="140" width="84" height="29" transform="rotate(-180 112 140)" fill="#EFEFEF"/>
<rect width="28" height="111" fill="#EFEFEF"/>
<rect x="112" width="28" height="111" fill="#EFEFEF"/>
<rect x="870" width="28" height="28" fill="#EFEFEF"/>
<rect x="1010" y="140" width="28" height="28" transform="rotate(-180 1010 140)" fill="#EFEFEF"/>
<rect x="982" width="28" height="28" fill="#EFEFEF"/>
<rect x="898" y="140" width="28" height="28" transform="rotate(-180 898 140)" fill="#EFEFEF"/>
<rect x="898" y="28" width="28" height="28" fill="#EFEFEF"/>
<rect x="982" y="112" width="28" height="28" transform="rotate(-180 982 112)" fill="#EFEFEF"/>
<rect x="954" y="28" width="28" height="28" fill="#EFEFEF"/>
<rect x="926.296" y="56.1295" width="28" height="28" fill="#EFEFEF"/>
<rect x="926.296" y="112" width="28" height="28" transform="rotate(-180 926.296 112)" fill="#EFEFEF"/>
</svg>
