<svg width="12" height="13" viewBox="0 0 12 13" fill="none" xmlns="http://www.w3.org/2000/svg">
<rect width="2.44895" height="2.44895" transform="matrix(-1 0 0 1 11.999 0)" fill="#B8B8B8"/>
<rect width="2.44895" height="2.44895" transform="matrix(1 -8.74228e-08 -8.74228e-08 -1 -0.000488281 12.2448)" fill="#B8B8B8"/>
<rect width="2.44895" height="2.44895" transform="matrix(-1 0 0 1 2.44873 0)" fill="#B8B8B8"/>
<rect width="2.44895" height="2.44895" transform="matrix(1 -8.74228e-08 -8.74228e-08 -1 9.55029 12.2448)" fill="#B8B8B8"/>
<rect width="2.44895" height="2.44895" transform="matrix(-1 0 0 1 9.55029 2.44897)" fill="#B8B8B8"/>
<rect width="2.44895" height="2.44895" transform="matrix(1 -8.74228e-08 -8.74228e-08 -1 2.44873 9.79578)" fill="#B8B8B8"/>
<rect width="2.44895" height="2.44895" transform="matrix(-1 0 0 1 4.89746 2.44897)" fill="#B8B8B8"/>
<rect width="2.44895" height="2.44895" transform="matrix(-1 0 0 1 7.10156 4.89795)" fill="#B8B8B8"/>
<rect width="2.44895" height="2.44895" transform="matrix(1 -8.74228e-08 -8.74228e-08 -1 7.10156 9.79578)" fill="#B8B8B8"/>
</svg>
