<svg width="693" height="393" viewBox="0 0 693 393" fill="none" xmlns="http://www.w3.org/2000/svg">
<rect x="423.777" y="322.818" width="130.872" height="34.8993" transform="rotate(-180 423.777 322.818)" fill="#ECECEC"/>
<rect x="306.615" y="392.617" width="34.8993" height="174.496" transform="rotate(-180 306.615 392.617)" fill="#ECECEC"/>
<rect x="446.212" y="392.617" width="34.8993" height="174.496" transform="rotate(-180 446.212 392.617)" fill="#ECECEC"/>
<rect x="240.556" y="392.617" width="34.8993" height="174.496" transform="rotate(-180 240.556 392.617)" fill="#ECECEC"/>
<rect x="693" y="392.617" width="34.8993" height="174.496" transform="rotate(-180 693 392.617)" fill="#ECECEC"/>
<rect x="139.597" y="174.496" width="104.698" height="36.1457" transform="rotate(-180 139.597 174.496)" fill="#0500FF"/>
<rect width="34.8993" height="138.351" fill="#0500FF"/>
<rect x="139.597" width="34.8993" height="138.351" fill="#0500FF"/>
<rect x="201.917" width="34.8993" height="34.8993" fill="#0500FF"/>
<rect x="376.414" y="174.496" width="34.8993" height="34.8993" transform="rotate(-180 376.414 174.496)" fill="#0500FF"/>
<rect x="341.514" width="34.8993" height="34.8993" fill="#0500FF"/>
<rect x="236.816" y="174.496" width="34.8993" height="34.8993" transform="rotate(-180 236.816 174.496)" fill="#0500FF"/>
<rect x="236.816" y="34.8992" width="34.8993" height="34.8993" fill="#0500FF"/>
<rect x="341.514" y="139.597" width="34.8993" height="34.8993" transform="rotate(-180 341.514 139.597)" fill="#0500FF"/>
<rect x="306.615" y="34.8992" width="34.8993" height="34.8993" fill="#0500FF"/>
<rect x="272.085" y="69.96" width="34.8993" height="34.8993" fill="#0500FF"/>
<rect x="272.085" y="139.597" width="34.8993" height="34.8993" transform="rotate(-180 272.085 139.597)" fill="#0500FF"/>
<rect x="499.808" y="219.367" width="34.8993" height="34.8993" fill="#ECECEC"/>
<rect x="499.808" y="357.718" width="34.8993" height="34.8993" fill="#ECECEC"/>
<rect x="534.707" y="219.367" width="34.8993" height="34.8993" fill="#ECECEC"/>
<rect x="534.707" y="357.718" width="34.8993" height="34.8993" fill="#ECECEC"/>
<rect x="639.405" y="358.964" width="34.8993" height="34.8993" transform="rotate(-180 639.405 358.964)" fill="#ECECEC"/>
<rect x="499.808" y="358.964" width="34.8993" height="34.8993" transform="rotate(-180 499.808 358.964)" fill="#ECECEC"/>
<rect x="464.908" y="254.266" width="34.8993" height="34.8993" fill="#ECECEC"/>
<rect x="569.606" y="219.367" width="34.8993" height="34.8993" fill="#ECECEC"/>
<rect x="569.606" y="357.718" width="34.8993" height="34.8993" fill="#ECECEC"/>
<rect x="604.505" y="254.266" width="34.8993" height="34.8993" fill="#ECECEC"/>
<rect x="499.808" y="324.065" width="34.8993" height="34.8993" transform="rotate(-180 499.808 324.065)" fill="#ECECEC"/>
<rect x="69.7983" y="219.367" width="34.8993" height="34.8993" fill="#ECECEC"/>
<rect x="69.7983" y="287.919" width="34.8993" height="33.6529" transform="rotate(-180 69.7983 287.919)" fill="#ECECEC"/>
<rect x="148.322" y="358.964" width="113.423" height="34.8993" transform="rotate(-180 148.322 358.964)" fill="#ECECEC"/>
<rect x="34.8994" y="392.617" width="34.8993" height="104.698" transform="rotate(-180 34.8994 392.617)" fill="#ECECEC"/>
<rect x="174.497" y="392.617" width="34.8993" height="104.698" transform="rotate(-180 174.497 392.617)" fill="#ECECEC"/>
<rect x="139.597" y="287.919" width="34.8993" height="33.6529" transform="rotate(-180 139.597 287.919)" fill="#ECECEC"/>
</svg>
