<svg width="93" height="95" viewBox="0 0 93 95" fill="none" xmlns="http://www.w3.org/2000/svg">
<path d="M21.4986 48.3286H18.4983V52.1055H21.4986V48.3286ZM8.35569 76.9635C12.6915 82.6673 20.3178 81.357 20.3178 81.357C21.2469 73.283 17.9564 70.6623 17.9564 70.6623C15.924 74.9402 19.0016 80.1237 19.0016 80.1237C14.3755 75.8651 8.35569 76.9635 8.35569 76.9635ZM16.2724 32.6815L14.8207 31.3327C11.2978 32.2191 8.74282 35.3408 8.74282 35.3408C10.4075 31.3905 9.49771 27.7099 8.76217 25.7444L7.69758 24.8773C4.63931 30.6582 8.02664 36.9787 8.02664 36.9787C12.7302 35.8611 15.111 34.0112 16.2724 32.6815ZM26.1053 85.3266C25.9505 82.8215 25.4859 80.9909 24.9246 79.5456H22.0405C22.8148 82.2819 24.5955 84.3631 24.5955 84.3631C19.2919 80.9716 13.5625 83.072 13.5625 83.072C18.8274 87.9473 26.1053 85.3266 26.1053 85.3266ZM25.3891 42.5477V75.4219H41.7451C43.6033 75.4604 45.5002 76.9057 45.5002 76.9057V50.6217C35.5899 50.4097 33.5962 42.5477 33.5962 42.5477H25.3891ZM33.1316 62.5304H31.9122V68.8895H30.3637V62.5304H29.1442V61.0852H33.1316V62.5304ZM40.8547 69.0051C40.4096 69.0051 39.8676 68.8702 39.5192 68.6004V67.1359C39.8869 67.3864 40.2353 67.5598 40.6999 67.5598C41.2032 67.5598 41.5903 67.2322 41.5903 66.712C41.5903 66.1146 41.1064 65.8834 40.6805 65.5751C39.7902 64.9777 39.2288 64.3996 39.2288 63.2627C39.2288 62.0294 39.945 60.9503 41.2806 60.9503C41.7838 60.9503 42.229 61.0852 42.6549 61.3357V62.8387C42.3452 62.569 41.958 62.3377 41.5322 62.3377C41.0483 62.3377 40.758 62.6268 40.758 63.1085C40.758 64.3996 43.1194 64.4574 43.1194 66.5771C43.1194 67.9645 42.3258 69.0051 40.8547 69.0051ZM41.9968 51.5659H43.5453V59.3702H41.9968V51.5659ZM37.119 51.5659H38.6869C39.674 51.5659 41.4354 51.6623 41.4354 53.8012C41.4354 54.6684 41.087 55.4006 40.3321 55.8245L41.6871 59.3702H40.0611L38.7062 55.7667H38.6869V59.3702H37.1384V51.5659H37.119ZM38.7643 68.8895H37.0996L36.8093 67.5791H35.2415L34.9511 68.8895H33.4026L35.2221 61.0852H36.848L38.7449 68.8895H38.7643ZM36.8093 51.5659V53.0112H35.2415V54.7069H36.6351V56.1521H35.2415V57.9057H36.8287V59.3509H33.693V51.5466L31.5251 59.3509H30.2476L27.9829 51.5466H29.6475L30.5766 55.3043C30.7121 55.7475 30.7702 56.1907 30.8476 56.6339C30.925 56.1714 30.9637 55.7282 31.0799 55.285L32.0283 51.5659H36.7706H36.8093ZM63.366 25.571L58.4689 30.8702L58.527 39.3489C58.527 39.3489 58.3721 40.7363 58.0818 41.43H61.2368L70.2374 32.4696L63.3854 25.5517L63.366 25.571ZM21.5953 66.211H18.5951V69.9878H21.5953V66.211ZM26.4925 29.502L32.8026 35.6684V30.8895L26.4925 24.6075V29.4828V29.502ZM21.5179 82.3976C21.905 82.3976 22.2341 82.0892 22.2341 81.6846C22.2341 81.2799 21.905 80.9716 21.5179 80.9716C21.1308 80.9716 20.8017 81.2992 20.8017 81.6846C20.8017 82.07 21.1308 82.3976 21.5179 82.3976ZM10.0978 31.8337C10.0978 32.2191 10.4075 32.5467 10.8139 32.5467C11.2204 32.5467 11.5301 32.2191 11.5301 31.8337C11.5301 31.4483 11.2204 31.1207 10.8139 31.1207C10.4075 31.1207 10.0978 31.4483 10.0978 31.8337ZM21.5566 77.2333C21.5953 77.5609 21.634 77.1562 21.634 77.1562V72.5314L20.8598 73.3793C21.305 74.5355 21.4598 76.212 21.5373 77.2333M32.7639 38.0385V37.0751L28.1184 32.4503H17.2208L23.3761 38.0578H32.7832L32.7639 38.0385ZM9.11059 24.858C9.11059 24.858 8.70411 22.3337 11.3559 18.5375H2.4327C2.4327 18.5375 2.81982 19.5781 9.1493 24.858M1.38746 38.7708C-0.2191 45.7465 5.68454 50.7373 5.68454 50.7373C12.4786 46.2475 12.3818 42.0659 12.3818 42.0659C7.77501 43.2606 5.78132 48.9452 5.78132 48.9452C6.07166 42.6633 1.38746 38.7901 1.38746 38.7901M6.65235 42.0274C8.046 35.8996 4.09733 31.2748 4.09733 31.2748C1.31004 37.8651 6.24587 43.7809 6.24587 43.7809C13.7174 40.5436 14.3561 36.4006 14.3561 36.4006C9.61385 36.786 6.65235 42.0274 6.65235 42.0274ZM7.2911 44.9564C7.2911 44.5517 6.9814 44.2434 6.57492 44.2434C6.16844 44.2434 5.85875 44.5517 5.85875 44.9564C5.85875 45.3611 6.16844 45.6694 6.57492 45.6694C6.9814 45.6694 7.2911 45.3611 7.2911 44.9564ZM43.7582 80.8753H48.4424C48.4424 80.8753 48.7521 78.8519 50.0683 78.8519H69.56V44.7252L67.6244 42.6826V76.5203H50.1844C50.1844 76.5203 47.8423 76.713 46.0035 78.9483C46.0035 78.9483 44.5711 76.8093 41.5129 76.6166H24.4794V42.9909L22.3889 45.072V78.8519H41.4161C41.4161 78.8519 43.7582 78.9483 43.7582 80.8753ZM13.2141 18.1329C8.31698 23.3742 10.9301 30.6197 10.9301 30.6197C19.079 30.1187 21.0921 26.4574 21.0921 26.4574C16.5047 25.2049 11.9172 29.1166 11.9172 29.1166C15.3239 23.8367 13.2141 18.1329 13.2141 18.1329ZM36.1899 64.284L36.0157 63.0893H35.9963L35.8221 64.284L35.4931 66.3651H36.577L36.1899 64.284ZM81.2124 78.9675C82.4125 78.2353 83.5352 77.2333 84.4643 75.8651C84.4643 75.8651 81.8899 75.5375 78.8703 76.5396L81.2124 78.9675ZM86.1676 47.9817C86.1676 47.9817 84.0384 42.355 79.4123 41.2759C79.4123 41.2759 79.4123 45.4574 86.3224 49.7931C86.3224 49.7931 92.1099 44.6673 90.3485 37.7302C90.3485 37.7302 85.7418 41.7191 86.187 47.9817M77.5154 64.785C77.5154 64.785 74.8249 67.9838 77.3218 75.7302C77.3218 75.7302 85.0449 75.499 88.1806 69.0629C88.1806 69.0629 82.0834 69.1785 78.3671 74.2657C78.3671 74.2657 80.3607 68.5811 77.5154 64.785ZM85.9934 54.9767C85.9934 54.9767 84.8707 49.0609 80.4962 47.1917C80.4962 47.1917 79.7607 51.3154 85.8192 56.7688C85.8192 56.7688 92.4196 52.7221 91.8777 45.5923C91.8777 45.5923 86.6515 48.7333 85.9934 54.9767ZM80.5349 53.2039C80.5349 53.2039 79.1026 57.1349 84.1158 63.5517C84.1158 63.5517 91.297 60.7191 92.0325 53.6085C92.0325 53.6085 86.3224 55.786 84.5997 61.8367C84.5997 61.8367 84.5223 55.8245 80.5543 53.2231M85.1224 58.503C85.5288 58.503 85.8385 58.1947 85.8385 57.7901C85.8385 57.3854 85.5288 57.0771 85.1224 57.0771C84.7159 57.0771 84.4062 57.3854 84.4062 57.7901C84.4062 58.1947 84.7352 58.503 85.1224 58.503ZM80.9608 70.643C80.9608 70.2576 80.6317 69.93 80.2446 69.93C79.8575 69.93 79.5284 70.2383 79.5284 70.643C79.5284 71.0477 79.8381 71.356 80.2446 71.356C80.6511 71.356 80.9608 71.0477 80.9608 70.643ZM20.6856 28.3458C20.3953 28.5578 18.4209 30.3692 15.4014 30.7353L16.4272 31.6988L27.228 31.641L23.8794 28.3073L22.176 26.6116C22.176 26.6116 20.9759 28.1339 20.6662 28.3458M62.4369 63.1471L62.2821 64.3225L61.953 66.4036H63.0369L62.6305 64.3225L62.4563 63.1471H62.4369ZM39.9063 53.8205C39.9063 53.2617 39.6353 52.7992 38.8611 52.8377H38.6481V54.9189H38.9191C39.6353 54.9189 39.9063 54.4564 39.9063 53.8205ZM46.5842 50.4097V76.9057C46.5842 76.9057 48.0746 75.4219 50.1844 75.4219H66.6953V42.5477H57.7914C57.7914 42.5477 55.2751 50.2941 46.5842 50.4097ZM48.5779 51.6045H50.1264V57.9635H51.7523V59.4087H48.5779V51.6045ZM53.6105 68.928L53.2427 63.3012H53.2234L52.9717 65.2282L52.3136 68.928H51.1135L50.3586 65.1897L50.0877 63.4554V63.3012L49.8554 68.928H48.1907L48.8682 61.1045H50.9006L51.6555 65.7292H51.6749L52.2943 61.1045H54.3847L55.217 68.928H53.6298H53.6105ZM63.5402 68.928L63.2499 67.5984H61.682L61.3917 68.928H59.8432L61.6627 61.1045H63.2886L65.1661 68.928H63.5015H63.5402ZM58.8173 51.6045H60.5594L61.0045 52.7028C61.14 53.0882 61.2949 53.4929 61.3723 53.8976C61.4497 53.4929 61.5852 53.1075 61.7207 52.7028L62.1853 51.6045H63.8693L62.1853 55.3813L63.9854 59.4087H62.1853L61.7014 58.1755C61.5465 57.7708 61.4497 57.4047 61.353 57H61.3336C61.2175 57.3854 61.1207 57.7708 61.0045 58.1755L60.54 59.4087H58.7979L60.4626 55.3813L58.7979 51.6045H58.8173ZM59.2431 61.1237V62.569H57.6753V64.2647H59.0689V65.7099H57.6753V67.4635H59.2625V68.9087H56.1268V61.0852H59.2431V61.1237ZM55.2558 58.1562C56.0107 58.1562 56.0106 57.5781 56.03 57V51.6237H57.5785V57.3276C57.5785 58.1562 57.4817 59.5629 55.2558 59.5629C53.804 59.5629 52.9524 58.8884 52.9524 57.4239V51.6237H54.5009V56.6724C54.5009 57.2698 54.4234 58.1562 55.2751 58.1562M25.5246 23.7596C25.5246 23.7596 24.8278 24.7809 22.1567 25.359L25.5246 28.4807V23.7789V23.7596ZM34.0994 37.3641C34.0994 45.6308 39.3063 49.4462 45.7325 49.4462C52.1588 49.4462 57.3656 45.6501 57.3656 37.3641V13.7779H34.0994C34.0994 13.7779 34.0994 29.0781 34.0994 37.3448M39.7127 20.6379V17.1501H50.6103V22.1217H54.2105V25.7059H50.7071V27.3053H54.2105V31.1978H50.7071V42.856H47.7068L43.5453 38.713L39.7514 42.4899L37.0029 39.7536L43.313 33.4716L46.5648 36.7089V20.6187H39.7127V20.6379ZM24.1697 38.9057L26.957 41.3529H33.2284C32.9187 40.8519 33.0155 38.9635 33.0155 38.9635L24.1697 38.9057ZM74.5732 70.0649C74.5732 70.0649 74.07 70.6045 73.8958 71.3945L75.4056 72.9554C75.3281 71.9726 75.0765 70.9899 74.5732 70.0649ZM15.3239 76.4432C17.6467 68.6582 14.8594 65.5172 14.8594 65.5172C12.1108 69.3712 14.24 74.998 14.24 74.998C10.4075 70.0071 4.31025 70.0264 4.31025 70.0264C7.6008 76.3854 15.3239 76.4239 15.3239 76.4239M14.9368 24.8387C23.0277 25.7444 25.6601 22.4878 25.6601 22.4878C21.3631 20.4452 16.1756 23.5284 16.1756 23.5284C20.4533 18.9229 19.3694 12.93 19.3694 12.93C13.6399 17.2465 14.9562 24.8387 14.9562 24.8387M31.9122 81.8966C32.2993 86.6176 37.5642 89.5659 37.5642 89.5659C31.4089 88.1785 26.7441 92.1288 26.7441 92.1288C33.3639 94.9036 39.3256 89.9899 39.3256 89.9899C36.0738 82.5325 31.9122 81.9158 31.9122 81.9158M11.2591 70.7393C14.8981 63.4746 12.7108 59.9097 12.7108 59.9097C9.3235 63.2241 10.4462 69.14 10.4462 69.14C7.56209 63.5517 1.52296 62.5304 1.52296 62.5304C3.65214 69.3712 11.2591 70.7393 11.2591 70.7393ZM27.6151 79.5456H26.6086C26.5505 83.997 30.867 87.5233 30.867 87.5233C25.0407 85.0953 19.7759 88.1592 19.7759 88.1592C25.815 92.0517 32.5316 88.217 32.5316 88.217C31.2154 82.783 28.9313 80.4706 27.6345 79.5456M12.6141 82.9178C12.6141 82.9178 13.7367 82.2627 15.3433 82.0314L13.5625 81.6075L13.3883 81.8387C13.4851 81.7039 13.5625 81.6075 13.5625 81.6075L5.64583 89.9128C5.64583 89.9128 4.75544 91.2038 5.58776 92.0517C5.58776 92.0517 6.38136 92.6876 7.48467 91.9554L15.2078 85.2302C14.4335 84.8256 12.7302 83.4189 12.6334 82.9178M8.27827 64.4189C13.1367 57.8864 11.6075 53.9939 11.6075 53.9939C7.69758 56.6917 7.75565 62.7039 7.75565 62.7039C5.82003 56.711 0.0712429 54.6684 0.0712429 54.6684C0.961628 61.7596 8.2202 64.4381 8.2202 64.4381M12.285 17.7089L2.9166 8.36308C2.9166 8.36308 -1.0127 11.1572 2.04557 17.7089H12.3044H12.285ZM16.524 14.3174L11.0075 8.76775C7.6008 5.37627 3.536 7.61156 3.536 7.61156L14.4142 18.3834C15.1497 15.6085 16.524 14.3174 16.524 14.3174ZM6.36201 58.6765C6.36201 59.0619 6.69106 59.3895 7.07819 59.3895C7.46531 59.3895 7.79437 59.0619 7.79437 58.6765C7.79437 58.2911 7.48467 57.9635 7.07819 57.9635C6.67171 57.9635 6.36201 58.2911 6.36201 58.6765ZM6.36201 57.6937C12.285 52.1055 11.4527 48.001 11.4527 48.001C7.13625 49.9665 6.14909 55.9209 6.14909 55.9209C5.33613 49.6775 0.0131743 46.6521 0.0131743 46.6521C-0.335237 53.8012 6.34265 57.6744 6.34265 57.6744M11.5301 71.4138C11.5301 71.8185 11.8398 72.1268 12.2463 72.1268C12.6528 72.1268 12.9625 71.8185 12.9625 71.4138C12.9625 71.0091 12.6528 70.7008 12.2463 70.7008C11.8398 70.7008 11.5301 71.0091 11.5301 71.4138ZM71.1859 81.7809C71.573 81.7809 71.9021 81.4533 71.9021 81.0679C71.9021 80.6826 71.573 80.355 71.1859 80.355C70.7988 80.355 70.4697 80.6826 70.4697 81.0679C70.4697 81.4533 70.7988 81.7809 71.1859 81.7809ZM74.9797 80.856L72.4634 78.8134C72.5215 79.4493 72.5989 80.1237 72.715 80.8367C72.715 80.8367 73.6248 80.9331 74.9604 80.8367M81.9673 68.2728C81.9673 68.2728 82.9545 62.3377 79.4897 59.1004C79.4897 59.1004 77.3992 62.7231 81.1931 69.9107C81.1931 69.9107 88.7807 68.3499 90.7357 61.4706C90.7357 61.4706 84.7352 62.6268 81.9867 68.2728M34.4285 88.0821C34.4285 87.6967 34.0994 87.3692 33.7123 87.3692C33.3252 87.3692 32.9961 87.6967 32.9961 88.0821C32.9961 88.4675 33.3058 88.7951 33.7123 88.7951C34.1188 88.7951 34.4285 88.4868 34.4285 88.0821ZM68.1663 83.8043C68.1663 83.8043 69.7148 81.9736 70.4697 79.3722L67.5663 79.3144C67.1018 80.7211 66.7533 82.5325 66.6759 84.8063C66.6759 84.8063 72.9473 86.8874 77.9606 83.2647L76.025 81.7231C73.8764 81.6075 70.9536 81.9158 68.1663 83.785M70.2762 72.2809V76.0578L87.2903 90.1055H90.6969L73.3925 72.2809H70.2955H70.2762ZM45.3647 88.6217V90.3945C44.5518 89.1034 41.3386 84.4402 37.719 84.2089C37.719 84.2089 38.9578 88.3905 44.3582 90.8377C44.3582 90.8377 37.5642 91.2809 34.7769 94.9807C34.7769 94.9807 40.6999 95.5203 45.3454 90.9341V93.8053H47.1455V88.6217H45.3454H45.3647ZM48.3649 90.8185C53.7653 88.3327 54.9654 84.1511 54.9654 84.1511C50.7651 84.4402 47.1649 90.7221 47.1649 90.7221C51.8684 95.501 57.9656 94.9036 57.9656 94.9036C55.159 91.2231 48.3649 90.8185 48.3649 90.8185ZM55.3525 89.3347C55.3525 89.3347 60.54 86.2708 60.811 81.5304C60.811 81.5304 56.6688 82.2627 53.5911 89.7779C53.5911 89.7779 59.6496 94.5568 66.2114 91.6278C66.2114 91.6278 61.4691 87.7931 55.3332 89.3347M61.9724 87.1187C61.9724 87.1187 66.0178 83.6694 66.0565 79.3529L64.6048 79.4107C63.3079 80.5477 61.3917 82.9757 60.3271 87.8702C60.3271 87.8702 67.1405 91.5314 73.0828 87.5233C73.0828 87.5233 67.7405 84.5751 61.9724 87.1379M58.3915 87.8124C58.3915 88.1978 58.7205 88.5254 59.1076 88.5254C59.4948 88.5254 59.8238 88.1978 59.8238 87.8124C59.8238 87.427 59.5141 87.0994 59.1076 87.0994C58.7012 87.0994 58.3915 87.427 58.3915 87.8124ZM83.5932 36.0538C83.5932 36.0538 87.2709 29.2708 83.2255 23.355C83.2255 23.355 80.264 28.6734 82.8383 34.4158C82.8383 34.4158 78.8897 29.8682 74.1668 30.4077C74.1668 30.4077 75.5991 34.3387 83.5739 36.0538M66.2694 20.214L68.4373 17.998C66.5985 17.574 63.1531 16.9574 60.3464 19.0385C60.3464 19.0385 61.7788 20.6572 66.2694 20.2333M80.6317 31.7181C81.0189 31.7181 81.3479 31.3905 81.3479 31.0051C81.3479 30.6197 81.0189 30.2921 80.6317 30.2921C80.2446 30.2921 79.9156 30.6197 79.9156 31.0051C79.9156 31.3905 80.2446 31.7181 80.6317 31.7181ZM85.5095 42.7982C85.5095 42.7982 90.3098 36.7667 87.3677 30.2343C87.3677 30.2343 83.5158 34.9554 85.0643 41.0639C85.0643 41.0639 81.9867 35.8803 77.225 35.6105C77.225 35.6105 77.9606 39.7343 85.5095 42.7982ZM75.1346 8.78702C77.3799 9.90466 79.18 8.72921 79.18 8.72921C81.677 7.51521 83.4964 9.21095 83.4964 9.21095C85.2385 10.5598 84.9675 12.3519 84.9675 12.3519C84.9675 13.7201 84.561 13.8164 84.561 13.8164C83.7287 14.3945 83.9416 13.431 83.9416 13.431C83.961 13.431 84.1352 12.7566 84.1352 12.7566C84.4643 9.67343 81.677 9.21095 81.677 9.21095C78.7155 8.69067 77.9799 11.427 77.9799 11.427C77.7864 12.1785 77.767 12.8337 77.8638 13.431L74.1668 9.75051L74.341 12.8529L82.5867 21.0619H85.5482L82.548 18.0751C84.1352 18.5761 85.5288 18.6146 85.5288 18.6146C89.7485 18.3641 90.1937 14.3367 90.1937 14.3367C91.297 10.1359 87.3096 6.76369 87.3096 6.76369C84.6578 4.48986 80.6124 4.29716 80.6124 4.29716C74.8829 3.64199 72.8505 0 72.8505 0C72.1731 1.6572 72.3666 4.10446 72.3666 4.10446C72.7344 7.88134 75.1539 8.76775 75.1539 8.76775M84.5223 43.9351C84.5223 44.3205 84.832 44.6481 85.2385 44.6481C85.645 44.6481 85.9547 44.3398 85.9547 43.9351C85.9547 43.5304 85.645 43.2221 85.2385 43.2221C84.832 43.2221 84.5223 43.5304 84.5223 43.9351ZM68.8825 17.4391L70.6246 15.6856C69.889 13.1998 68.3793 10.213 64.6822 8.42089C64.6822 8.42089 64.5274 13.7394 68.9019 17.4391M73.2764 66.5193H70.2762V70.2961H73.2764V66.5193ZM75.6185 29.0203C76.9347 29.3864 78.5606 29.6755 80.5543 29.7525C80.5543 29.7525 81.464 27.074 81.0576 23.8174L78.4638 26.3032C78.7542 26.9584 79.1026 27.6136 79.5478 28.2688C79.5478 28.2688 78.8316 27.6907 77.6896 27.0548L75.6185 29.0203ZM18.5951 20.9462C18.5951 21.3316 18.9242 21.6592 19.3113 21.6592C19.6984 21.6592 20.0275 21.3509 20.0275 20.9462C20.0275 20.5416 19.7178 20.2333 19.3113 20.2333C18.9048 20.2333 18.5951 20.5416 18.5951 20.9462ZM81.3866 21.7941L73.6829 14.1247L66.7727 21.5822L74.1861 28.8469L81.3866 21.7748V21.7941ZM65.0306 22.0446L63.4821 23.8945L71.8827 32.2576L73.5861 30.5619L65.0306 22.0446ZM73.1409 47.9817H70.1407V51.7779H73.1409V47.9817ZM37.2158 11.8895C37.2158 11.8895 39.5772 13.4503 43.7195 10.5984C43.7195 10.5984 38.5707 8.49797 37.2158 11.8895ZM63.9854 14.568C63.9854 14.568 61.6433 13.855 58.7012 14.857V17.5355C60.4819 17.497 62.3208 17.073 65.6113 15.3387C65.6113 15.3387 64.0435 7.78499 57.1333 5.85801C57.1333 5.85801 58.2947 11.8316 63.966 14.568M32.9961 17.9016L33.0542 15.3002C30.1508 14.4523 27.2086 14.9919 27.2086 14.9919C32.8219 12.1207 33.8478 6.10852 33.8478 6.10852C26.9957 8.20893 25.6021 15.7819 25.6021 15.7819C28.7571 17.3621 31.2347 17.8438 33.0155 17.8824M30.8476 19.3854C26.9764 16.6491 21.3243 18.7688 21.3243 18.7688C26.357 14.9726 26.3182 8.88337 26.3182 8.88337C19.9307 12.14 19.892 19.8479 19.892 19.8479C27.7119 22.1602 30.867 19.3854 30.867 19.3854M30.4218 13.6815C30.4218 14.0669 30.7508 14.3945 31.1379 14.3945C31.5251 14.3945 31.8541 14.0669 31.8541 13.6815C31.8541 13.2961 31.5444 12.9686 31.1379 12.9686C30.7315 12.9686 30.4218 13.2961 30.4218 13.6815ZM32.1445 12.93L37.5255 12.8529C35.8415 11.8509 34.022 11.8895 34.022 11.8895C40.0418 10.0203 41.7645 4.68256 41.7645 4.68256C34.6414 5.56897 31.9509 12.7951 31.9509 12.7951C32.0477 12.8529 32.0477 12.8722 32.1445 12.93ZM60.8691 13.2961C60.8691 12.9108 60.5594 12.5832 60.1529 12.5832C59.7464 12.5832 59.4367 12.8915 59.4367 13.2961C59.4367 13.7008 59.7657 14.0091 60.1529 14.0091C60.54 14.0091 60.8691 13.6815 60.8691 13.2961ZM57.0946 11.8895C57.0946 11.8895 55.2558 11.8509 53.5911 12.8529L58.9721 12.93C58.9721 12.93 59.0689 12.8529 59.1657 12.7951C59.1657 12.7951 56.4752 5.56897 49.3521 4.68256C49.3521 4.68256 51.0748 10.0203 57.0946 11.8895ZM45.5389 11.0609C46.0616 11.0609 46.4874 10.6369 46.4874 10.1166C46.4874 9.59635 46.0616 9.17241 45.5389 9.17241C45.0163 9.17241 44.5711 9.59635 44.5711 10.1166C44.5711 10.6369 44.997 11.0609 45.5389 11.0609ZM53.9008 11.5619C52.391 8.22819 47.3391 10.5213 47.3391 10.5213C51.5974 13.2191 53.9008 11.5619 53.9008 11.5619Z" fill="#AAAAAA"/>
</svg>
